HIERARCHY
ROOT Hips
{
	OFFSET 0.000000 0.000000 0.000000
	CHANNELS 6 Xposition Yposition Zposition Zrotation Yrotation Xrotation 
	JOINT LeftUpLeg_virtual
	{
		OFFSET 0.000000 0.000000 0.000000
		CHANNELS 3 Zrotation Yrotation Xrotation
		JOINT LeftUpLeg
		{
			OFFSET 10.205400 -3.823500 0.155100
			CHANNELS 3 Zrotation Yrotation Xrotation
			JOINT LeftLeg
			{
				OFFSET 0.708757 -12.982077 0.567790
				CHANNELS 3 Zrotation Yrotation Xrotation
				JOINT LeftFoot
				{
					OFFSET -0.708756 -10.717838 -2.184338
					CHANNELS 3 Zrotation Yrotation Xrotation
					JOINT LeftToeBase
					{
						OFFSET 0.108149 -7.191104 7.560241
						CHANNELS 3 Zrotation Yrotation Xrotation
						End Site
						{
							OFFSET 0.000000 0.000000 0.000000
						}
					}
				}
			}
		}
	}
	JOINT RightUpLeg_virtual
	{
		OFFSET 0.000000 0.000000 0.000000
		CHANNELS 3 Zrotation Yrotation Xrotation
		JOINT RightUpLeg
		{
			OFFSET -10.205400 -3.823500 0.005500
			CHANNELS 3 Zrotation Yrotation Xrotation
			JOINT RightLeg
			{
				OFFSET -0.708756 -12.982134 0.610632
				CHANNELS 3 Zrotation Yrotation Xrotation
				JOINT RightFoot
				{
					OFFSET 0.708754 -10.717769 -1.945823
					CHANNELS 3 Zrotation Yrotation Xrotation
					JOINT RightToeBase
					{
						OFFSET -0.108140 -7.191069 7.372968
						CHANNELS 3 Zrotation Yrotation Xrotation
						End Site
						{
							OFFSET 0.000000 0.000000 0.000000
						}
					}
				}
			}
		}
	}
	JOINT Spine_virtual
	{
		OFFSET 0.000000 0.000000 0.000000
		CHANNELS 3 Zrotation Yrotation Xrotation
		JOINT Spine
		{
			OFFSET 0.000000 6.876099 0.125700
			CHANNELS 3 Zrotation Yrotation Xrotation
			JOINT Spine1
			{
				OFFSET 0.000000 8.022060 0.146608
				CHANNELS 3 Zrotation Yrotation Xrotation
				JOINT Spine2
				{
					OFFSET 0.000000 9.168068 0.167552
					CHANNELS 3 Zrotation Yrotation Xrotation
					JOINT Neck_virtual
					{
						OFFSET 0.000000 0.000000 0.000000
						CHANNELS 3 Zrotation Yrotation Xrotation
						JOINT Neck
						{
							OFFSET 0.000000 10.314075 0.188496
							CHANNELS 3 Zrotation Yrotation Xrotation
							JOINT Head
							{
								OFFSET 0.000000 7.643700 -2.377400
								CHANNELS 3 Zrotation Yrotation Xrotation
								End Site
								{
									OFFSET 0.000000 0.000000 0.000000
								}
							}
						}
					}
					JOINT LeftShoulder_virtual
					{
						OFFSET 0.000000 0.000000 0.000000
						CHANNELS 3 Zrotation Yrotation Xrotation
						JOINT LeftShoulder
						{
							OFFSET 4.392200 8.824978 0.174984
							CHANNELS 3 Zrotation Yrotation Xrotation
							JOINT LeftArm
							{
								OFFSET 8.771219 -2.981674 -0.026999
								CHANNELS 3 Zrotation Yrotation Xrotation
								JOINT LeftForeArm
								{
									OFFSET 8.512804 0.000000 -0.000000
									CHANNELS 3 Zrotation Yrotation Xrotation
									JOINT LeftHand
									{
										OFFSET 18.484802 0.000000 -0.000000
										CHANNELS 3 Zrotation Yrotation Xrotation
										End Site
										{
											OFFSET 0.000000 0.000000 0.000000
										}
									}
								}
							}
						}
					}
					JOINT RightShoulder_virtual
					{
						OFFSET 0.000000 0.000000 0.000000
						CHANNELS 3 Zrotation Yrotation Xrotation
						JOINT RightShoulder
						{
							OFFSET -4.392200 8.824993 0.141379
							CHANNELS 3 Zrotation Yrotation Xrotation
							JOINT RightArm
							{
								OFFSET -8.771282 -2.981682 -0.094208
								CHANNELS 3 Zrotation Yrotation Xrotation
								JOINT RightForeArm
								{
									OFFSET -8.494598 0.000000 0.000000
									CHANNELS 3 Zrotation Yrotation Xrotation
									JOINT RightHand
									{
										OFFSET -18.483803 0.000000 0.000001
										CHANNELS 3 Zrotation Yrotation Xrotation
										End Site
										{
											OFFSET 0.000000 0.000000 0.000000
										}
									}
								}
							}
						}
					}
				}
			}
		}
	}
}
MOTION
Frames: 14
Frame Time: 0.033333
7.990160 34.880150 -81.844269 0.133713 -67.538283 -0.759698 -1.095500 -3.418145 12.463539 -2.092815 -6.022121 -37.171771 14.302991 13.929257 17.586569 -8.778778 7.787906 16.535984 0.000000 0.000000 0.000000 6.004208 -3.008957 9.809159 -1.498740 4.375997 -30.646137 -2.459507 6.663077 18.523799 10.743578 5.265425 10.729763 0.000000 0.000000 0.000000 1.436663 0.509739 0.898093 -2.657828 0.885051 -12.176784 -2.128848 -3.128471 6.931314 0.025050 0.064549 -0.189790 -2.456103 -1.360486 9.342790 -9.662626 -0.485450 6.512316 0.000000 0.000000 0.000000 -0.524712 -0.408981 6.599900 -7.734241 -12.372193 4.834969 -28.799851 9.228734 33.570349 -1.424749 -32.810012 1.294881 0.000000 0.000000 0.000000 -5.131591 0.599011 6.220134 30.957378 5.429105 7.514210 48.241141 -24.505862 5.799747 -6.865615 20.129172 -1.223548 0.000000 0.000000 0.000000 
7.876938 34.856102 -81.884727 0.375329 -67.725492 -1.297939 -1.206012 -3.591027 12.736919 -2.220488 -6.097449 -37.040635 14.280706 13.537292 17.325236 -8.700054 7.723367 17.088435 0.000000 0.000000 0.000000 6.438267 -2.835005 9.597665 -1.431598 3.407456 -31.166802 -2.730844 7.096236 18.221451 11.250792 5.567346 10.788866 0.000000 0.000000 0.000000 1.423844 0.400484 1.326112 -2.618965 0.944790 -12.039195 -2.140560 -3.207309 6.989524 0.036599 0.029226 -0.311769 -2.429155 -1.334968 9.181677 -9.734412 -0.395119 6.383979 0.000000 0.000000 0.000000 -0.466214 -0.446314 6.701638 -7.514514 -12.342206 4.645875 -28.848967 8.651147 31.822767 -1.632064 -32.107568 1.315565 0.000000 0.000000 0.000000 -5.116876 0.545509 6.148185 30.777888 5.661243 7.479322 48.039558 -24.049125 6.208306 -6.818778 20.114895 -1.235716 0.000000 0.000000 0.000000 
7.716015 34.787251 -81.971481 0.683063 -68.165206 -1.492869 -1.068577 -3.576870 12.862006 -2.259758 -6.370071 -37.275361 14.725159 12.775033 18.042160 -8.399819 7.635766 16.491596 0.000000 0.000000 0.000000 6.001649 -2.983964 9.638635 -0.697669 3.454649 -31.220644 -2.398940 6.945204 18.287306 10.956908 5.166309 11.080484 0.000000 0.000000 0.000000 1.432063 0.253347 1.520862 -2.513015 1.183424 -12.113217 -2.168118 -3.221206 6.944294 0.056613 0.068589 -0.180012 -2.428911 -1.330849 8.970445 -9.934240 -0.397144 6.412598 0.000000 0.000000 0.000000 -0.506695 -0.566961 6.512124 -7.322723 -12.127756 4.427354 -29.383873 8.221466 28.555114 -1.599379 -30.581571 0.969298 0.000000 0.000000 0.000000 -5.157497 0.471680 5.900702 30.577193 5.903370 7.436075 47.572069 -23.549179 6.923711 -6.689748 20.002496 -1.033346 0.000000 0.000000 0.000000 
7.519903 34.672100 -82.109749 1.176001 -68.492106 -1.823864 -0.968739 -3.819999 12.949101 -2.315531 -6.759462 -37.571996 15.416516 11.109565 19.290840 -8.402004 7.306184 15.013360 0.000000 0.000000 0.000000 5.365389 -3.129378 9.585794 0.096676 3.717622 -31.179841 -2.042470 6.233529 18.489515 10.130568 5.634286 11.068999 0.000000 0.000000 0.000000 1.412506 0.021197 1.612982 -2.362432 1.451169 -12.089606 -2.246157 -3.306085 6.852907 0.006762 0.064916 -0.283595 -2.458787 -1.443667 8.887008 -10.242474 -0.237010 6.350187 0.000000 0.000000 0.000000 -0.511965 -0.558246 6.407105 -7.099062 -11.735744 4.276489 -30.594941 8.144080 24.138008 -1.681798 -28.556949 0.586626 0.000000 0.000000 0.000000 -5.177887 0.472661 5.760068 30.443700 6.042588 7.404927 47.045161 -23.096297 7.558893 -6.430003 19.943393 -0.867765 0.000000 0.000000 0.000000 
7.304479 34.536968 -82.275429 1.399385 -68.761973 -1.970679 -0.769304 -4.199552 13.159591 -2.099717 -7.032564 -37.978639 16.221517 10.630337 20.870002 -8.775390 6.808756 13.652077 0.000000 0.000000 0.000000 4.949748 -3.399159 9.485527 0.788515 4.039043 -31.061624 -1.673891 5.482370 18.762548 9.940262 5.727158 10.795162 0.000000 0.000000 0.000000 1.466143 -0.266087 1.717774 -2.145057 1.744313 -12.019434 -2.316883 -3.314799 6.641387 0.059125 0.097718 -0.122840 -2.636971 -1.612656 8.841055 -10.723319 -0.251199 6.532042 0.000000 0.000000 0.000000 -0.617377 -0.576877 6.217625 -6.766655 -11.254585 4.075576 -32.470306 8.635408 20.029834 -1.755884 -26.672346 0.054928 0.000000 0.000000 0.000000 -5.258292 0.437880 5.501149 30.374357 6.049959 7.336519 46.450675 -22.733274 7.865120 -6.241385 19.904541 -0.941604 0.000000 0.000000 0.000000 
7.088681 34.406910 -82.441742 1.472206 -68.728314 -1.870563 -0.806679 -4.459442 13.240241 -1.637556 -6.736727 -38.891961 16.660056 10.011490 23.238515 -9.474744 6.111323 12.014165 0.000000 0.000000 0.000000 4.597618 -3.623794 9.380341 1.441549 4.411277 -30.960414 -1.556829 5.044023 18.970056 9.806576 5.657587 10.672459 0.000000 0.000000 0.000000 1.496943 -0.444470 1.674619 -1.875806 1.981279 -11.869738 -2.371266 -3.381375 6.569372 0.050608 0.079509 -0.092860 -2.648211 -1.693714 8.672359 -11.158688 -0.198891 6.253056 0.000000 0.000000 0.000000 -0.583623 -0.580045 6.017262 -6.277288 -10.823268 3.883931 -34.887971 9.495365 16.711709 -1.821724 -25.373125 -0.215495 0.000000 0.000000 0.000000 -5.226440 0.379691 5.210960 30.258541 5.861003 7.235160 46.059804 -22.242545 7.349876 -5.973013 19.887735 -0.849614 0.000000 0.000000 0.000000 
6.875893 34.296577 -82.589226 1.316642 -68.214028 -1.509786 -0.963634 -4.422361 13.142946 -1.055407 -6.193601 -40.159081 17.009973 9.833623 25.865773 -10.352013 5.411118 10.835731 0.000000 0.000000 0.000000 4.328668 -3.746148 9.371010 2.142851 4.682732 -30.962709 -1.621946 4.763368 19.105561 9.622347 5.509780 10.864446 0.000000 0.000000 0.000000 1.489202 -0.536815 1.632531 -1.575446 2.142181 -11.704123 -2.299909 -3.408833 6.449559 0.078077 0.071284 -0.081412 -2.665419 -1.671120 8.653986 -11.574693 -0.157138 5.953272 0.000000 0.000000 0.000000 -0.586326 -0.608730 5.892254 -5.585312 -10.605470 3.629635 -37.400845 10.227869 14.340228 -1.957532 -24.706541 -0.493760 0.000000 0.000000 0.000000 -5.218145 0.329202 5.065182 30.154711 5.573596 7.069807 46.093480 -21.627922 6.228878 -5.742126 19.679506 -1.059991 0.000000 0.000000 0.000000 
6.688520 34.202423 -82.704216 0.839726 -66.817289 -0.888309 -1.225524 -4.122227 12.973245 -0.187901 -5.720315 -42.212232 17.711852 9.842433 29.566154 -12.587184 4.326032 10.207317 0.000000 0.000000 0.000000 4.121109 -3.782339 9.511606 2.874207 5.032203 -31.015810 -1.872316 4.291099 19.098551 9.119684 5.045390 11.123470 0.000000 0.000000 0.000000 1.513791 -0.558756 1.667431 -1.285892 2.211000 -11.427204 -2.227802 -3.481330 6.308700 0.052436 0.008691 -0.046222 -2.596408 -1.661732 8.479635 -11.960895 -0.192650 5.416384 0.000000 0.000000 0.000000 -0.482951 -0.671422 5.722043 -4.627722 -10.674204 3.325127 -39.873183 10.697187 12.701168 -2.102017 -24.454942 -0.767681 0.000000 0.000000 0.000000 -5.099494 0.269989 4.910567 29.993085 5.253147 6.928357 46.610420 -20.783759 4.606454 -5.451726 19.261666 -1.404463 0.000000 0.000000 0.000000 
6.521460 34.126450 -82.766861 0.338344 -65.257977 -0.435183 -1.422821 -3.888743 12.829786 0.705812 -5.107751 -44.703595 18.291675 9.506806 35.632943 -14.203725 3.125105 10.576839 0.000000 0.000000 0.000000 3.861944 -3.715897 9.827058 3.626043 4.851142 -30.937424 -2.114334 3.988585 19.527816 8.502996 4.678264 10.873059 0.000000 0.000000 0.000000 1.515151 -0.578623 1.797718 -1.022940 2.233249 -11.117331 -2.136533 -3.551638 6.140749 -0.001840 -0.077953 -0.021743 -2.436242 -1.696508 8.364214 -12.191597 -0.264455 4.914862 0.000000 0.000000 0.000000 -0.367521 -0.699452 5.552553 -3.460911 -10.917764 3.044374 -41.992345 10.883638 11.676269 -2.242865 -24.391785 -1.057978 0.000000 0.000000 0.000000 -4.950645 0.234570 4.663821 29.743637 5.119768 6.721404 47.373215 -19.707186 3.149449 -5.227881 18.740598 -1.552536 0.000000 0.000000 0.000000 
6.326864 34.071117 -82.757332 0.068675 -63.703822 -0.215710 -1.236505 -3.951665 12.995733 0.547672 -4.235624 -46.948330 18.698845 8.053298 42.020256 -14.740392 2.578858 11.193680 0.000000 0.000000 0.000000 3.514541 -3.523075 10.067257 4.394414 4.593070 -30.588220 -2.280874 3.988687 19.898491 7.887879 4.156653 10.452297 0.000000 0.000000 0.000000 1.492077 -0.531049 1.928400 -0.827815 2.354560 -10.798314 -2.053211 -3.520294 6.022583 0.004194 -0.076670 -0.004448 -2.333824 -1.696344 8.101159 -12.382275 -0.413864 4.241540 0.000000 0.000000 0.000000 -0.330815 -0.766775 5.402876 -2.222631 -11.274505 2.709192 -43.842117 10.930236 10.819041 -2.352577 -24.016292 -1.331349 0.000000 0.000000 0.000000 -4.880391 0.200776 4.388157 29.368198 5.030550 6.677471 48.468026 -18.480436 2.173379 -5.022270 18.084492 -1.933359 0.000000 0.000000 0.000000 
6.069180 34.043167 -82.668495 0.177817 -62.616347 -0.265662 -0.892589 -4.419982 13.286130 -0.595969 -2.703388 -48.828391 19.085577 6.895269 47.538738 -14.238114 2.879529 12.385448 0.000000 0.000000 0.000000 3.650654 -3.045693 10.331305 4.716270 4.290228 -30.661792 -2.705735 4.967328 21.751965 7.137437 3.653670 7.959672 0.000000 0.000000 0.000000 1.435130 -0.513347 1.982547 -0.719792 2.553908 -10.466872 -2.063253 -3.410033 5.920619 0.059249 -0.013847 -0.007947 -2.373486 -1.566584 7.837943 -12.470266 -0.509058 3.510790 0.000000 0.000000 0.000000 -0.358768 -0.654469 5.156210 -0.997816 -11.397681 2.435204 -45.606840 11.184618 9.989619 -2.433835 -23.494083 -1.555969 0.000000 0.000000 0.000000 -4.929602 0.330301 4.225583 28.951813 5.279446 6.623386 49.585606 -17.315035 1.913307 -4.729794 17.600277 -2.209078 0.000000 0.000000 0.000000 
5.731058 34.047459 -82.461174 0.276584 -61.116683 0.056296 -0.810579 -5.047486 13.110268 -1.655722 -1.362676 -50.994151 19.004151 6.146969 50.072335 -12.717501 3.226779 14.978982 0.000000 0.000000 0.000000 3.517444 -2.961133 10.482565 5.065825 4.153101 -30.158161 -3.199561 5.408050 22.449075 6.743278 3.014599 6.255127 0.000000 0.000000 0.000000 1.453371 -0.647448 1.772024 -0.595382 2.695745 -10.287890 -2.102116 -3.383997 5.838582 0.019762 -0.025316 0.012401 -2.418807 -1.437302 7.602978 -12.406110 -0.601089 2.827372 0.000000 0.000000 0.000000 -0.407679 -0.605214 4.988169 0.072813 -11.379394 2.159095 -47.340089 11.799760 9.255536 -2.520810 -22.833744 -1.686271 0.000000 0.000000 0.000000 -5.014488 0.412506 4.055358 28.538364 5.581506 6.677199 50.636068 -16.266744 2.153321 -4.503375 17.398908 -2.337367 0.000000 0.000000 0.000000 
5.288931 34.086235 -82.111336 0.020896 -59.609267 0.261751 -0.615665 -5.382526 13.021958 -2.451725 -1.095344 -52.673169 18.976718 6.471787 48.343925 -11.925887 3.224370 16.540322 0.000000 0.000000 0.000000 3.491788 -3.337548 10.741360 5.056649 4.407599 -29.107118 -3.603997 5.422396 22.636205 6.506007 2.662167 5.100147 0.000000 0.000000 0.000000 1.649118 -0.869887 1.938793 -0.416621 2.814752 -10.048948 -2.211286 -3.404811 5.760943 -0.062218 -0.075812 -0.020964 -2.553526 -1.434025 7.508856 -12.323429 -0.647482 2.406052 0.000000 0.000000 0.000000 -0.542120 -0.568623 4.884968 0.819393 -11.178183 1.993404 -49.052038 12.875347 8.744694 -2.530976 -22.232240 -1.766499 0.000000 0.000000 0.000000 -5.152777 0.480626 3.939322 28.069398 5.990519 6.767664 51.504353 -15.359946 2.631218 -4.453299 17.442143 -2.807752 0.000000 0.000000 0.000000 
4.755060 34.136009 -81.645645 0.047428 -58.386035 0.462761 -0.614095 -5.854895 12.958868 -3.342823 -0.762329 -54.014017 18.459469 7.273369 42.809283 -11.510131 2.811844 16.807793 0.000000 0.000000 0.000000 3.499303 -3.712533 10.983405 4.977765 4.117880 -27.830403 -3.842110 5.560623 22.577711 6.442924 2.494274 4.398668 0.000000 0.000000 0.000000 1.775344 -1.007776 2.000580 -0.333024 2.979381 -9.992583 -2.399914 -3.364550 5.692060 -0.024959 -0.061894 0.082641 -2.727563 -1.425673 7.276767 -12.240899 -0.647503 2.104228 0.000000 0.000000 0.000000 -0.724405 -0.624459 4.757517 1.286028 -10.870396 1.801248 -50.630830 14.360025 8.278567 -2.529408 -21.826035 -1.616135 0.000000 0.000000 0.000000 -5.324707 0.449497 3.749245 27.675623 6.353200 6.942607 52.090318 -14.603330 3.397483 -4.493257 17.707363 -3.139182 0.000000 0.000000 0.000000 
